<svg width="750" height="200" fill="none" xmlns="http://www.w3.org/2000/svg" viewBox="0 0 750 200" data-testid="summary-lite-chart"><g><defs><linearGradient id="Gradient" gradientTransform="rotate(90)"><stop offset="0" stop-opacity="1" stop-color="hsla(355, 100%, 50%, 1)"></stop><stop offset="1" stop-opacity="0" stop-color="hsla(355, 100%, 50%, 1)"></stop></linearGradient></defs><path d="M0,73.68050342073084 L32.608695652173914,41.678483864811284 L65.21739130434783,36.95768090867071 L97.82608695652173,55.42817386629932 L130.43478260869566,22.258455423527806 L163.04347826086956,0 L195.65217391304347,51.23024803890158 L228.2608695652174,92.26836807685721 L260.8695652173913,29.078954485330854 L293.4782608695652,46.53037905608306 L326.0869565217391,147.21040218497407 L358.69565217391306,123.08734080038089 L391.30434782608694,129.983107978615 L423.9130434782609,141.4869985183566 L456.5217391304348,200 L489.1304347826087,141.34466606635763 L521.7391304347826,131.98168797115383 L554.3478260869565,32.36628645462852 L586.9565217391304,81.74815978886336 L619.5652173913044,60.82838560033687 L652.1739130434783,51.292299603099366 L684.7826086956521,135.62859465022126 L717.3913043478261,108.56726262423128 L750,175.94235749442814 L 750,200 L 0,200" fill="url(#Gradient)" fill-opacity="0.25" stroke="none" data-testid="chart-fill"></path><path d="M0,73.68050342073084 L32.608695652173914,41.678483864811284 L65.21739130434783,36.95768090867071 L97.82608695652173,55.42817386629932 L130.43478260869566,22.258455423527806 L163.04347826086956,0 L195.65217391304347,51.23024803890158 L228.2608695652174,92.26836807685721 L260.8695652173913,29.078954485330854 L293.4782608695652,46.53037905608306 L326.0869565217391,147.21040218497407 L358.69565217391306,123.08734080038089 L391.30434782608694,129.983107978615 L423.9130434782609,141.4869985183566 L456.5217391304348,200 L489.1304347826087,141.34466606635763 L521.7391304347826,131.98168797115383 L554.3478260869565,32.36628645462852 L586.9565217391304,81.74815978886336 L619.5652173913044,60.82838560033687 L652.1739130434783,51.292299603099366 L684.7826086956521,135.62859465022126 L717.3913043478261,108.56726262423128 L750,175.94235749442814" fill="none" stroke-width="5" stroke-opacity="1" stroke="hsla(355, 100%, 50%, 1)" data-testid="chart-line"></path></g></svg>