<svg width="750" height="200" fill="none" xmlns="http://www.w3.org/2000/svg" viewBox="0 0 750 200" data-testid="summary-lite-chart"><g><defs><linearGradient id="Gradient" gradientTransform="rotate(90)"><stop offset="0" stop-opacity="1" stop-color="hsla(158, 100%, 44%, 1)"></stop><stop offset="1" stop-opacity="0" stop-color="hsla(158, 100%, 44%, 1)"></stop></linearGradient></defs><path d="M0,200 L32.608695652173914,129.491494481914 L65.21739130434783,154.65750376394283 L97.82608695652173,71.1146040981917 L130.43478260869566,83.2334815188408 L163.04347826086956,47.23783709495552 L195.65217391304347,71.37245255395021 L228.2608695652174,97.56985565901289 L260.8695652173913,157.64854585074133 L293.4782608695652,99.2200857758672 L326.0869565217391,95.55863770409671 L358.69565217391306,29.136875500709465 L391.30434782608694,0 L423.9130434782609,45.3297585223427 L456.5217391304348,56.056254281895804 L489.1304347826087,56.159393664199285 L521.7391304347826,77.92180333021584 L554.3478260869565,83.54289966575097 L586.9565217391304,58.01590254566045 L619.5652173913044,85.08999040030196 L652.1739130434783,66.62804096799405 L684.7826086956521,103.13938230339633 L717.3913043478261,100.87031589272154 L750,119.19699802513864 L 750,200 L 0,200" fill="url(#Gradient)" fill-opacity="0.25" stroke="none" data-testid="chart-fill"></path><path d="M0,200 L32.608695652173914,129.491494481914 L65.21739130434783,154.65750376394283 L97.82608695652173,71.1146040981917 L130.43478260869566,83.2334815188408 L163.04347826086956,47.23783709495552 L195.65217391304347,71.37245255395021 L228.2608695652174,97.56985565901289 L260.8695652173913,157.64854585074133 L293.4782608695652,99.2200857758672 L326.0869565217391,95.55863770409671 L358.69565217391306,29.136875500709465 L391.30434782608694,0 L423.9130434782609,45.3297585223427 L456.5217391304348,56.056254281895804 L489.1304347826087,56.159393664199285 L521.7391304347826,77.92180333021584 L554.3478260869565,83.54289966575097 L586.9565217391304,58.01590254566045 L619.5652173913044,85.08999040030196 L652.1739130434783,66.62804096799405 L684.7826086956521,103.13938230339633 L717.3913043478261,100.87031589272154 L750,119.19699802513864" fill="none" stroke-width="5" stroke-opacity="1" stroke="hsla(158, 100%, 44%, 1)" data-testid="chart-line"></path></g></svg>